# xmcd
#
# Track frame offsets: 
#        150
#        13640
#        26591
#        39387
#        52622
#        64869
#        76813
#        87515
#        98824
#        113754
#        126719
#        141294
#
# Disc length: 2093 seconds
#
# Revision: 0
# Processed by: cddbd v1.5.2PL0 Copyright (c) Steve Scherf et al.
# Submitted via: ExactAudioCopy v0.95b3
#
DISCID=98082b0c
DTITLE=Smokey Robinson and The Miracles  - Going To A Go-Go
DYEAR=1900
DGENRE=
TTITLE0=The tracks of my tears
TTITLE1=Going to a go-go
TTITLE2=OOO baby baby
TTITLE3=My girl has gone
TTITLE4=In case you need lve
TTITLE5=Choosey beggar
TTITLE6=Since you won my heart
TTITLE7=From head to toe
TTITLE8=All that's good
TTITLE9=My baby changes like the weather
TTITLE10=Let me have some
TTITLE11=A fork in the road
EXTD=
EXTT0=
EXTT1=
EXTT2=
EXTT3=
EXTT4=
EXTT5=
EXTT6=
EXTT7=
EXTT8=
EXTT9=
EXTT10=
EXTT11=
PLAYORDER=
